<svg width="474" height="474" viewBox="0 0 474 474" fill="none" xmlns="http://www.w3.org/2000/svg">
<g clip-path="url(#clip0_262_1260)">
<g clip-path="url(#clip1_262_1260)">
<path d="M474 0H0V474H474V0Z" fill="white"/>
<path d="M135.429 38.6938H125.756V48.3673H135.429V38.6938Z" fill="black"/>
<path d="M154.775 38.6938H145.102V48.3673H154.775V38.6938Z" fill="black"/>
<path d="M164.449 38.6938H154.775V48.3673H164.449V38.6938Z" fill="black"/>
<path d="M203.142 38.6938H193.469V48.3673H203.142V38.6938Z" fill="black"/>
<path d="M222.49 38.6938H212.816V48.3673H222.49V38.6938Z" fill="black"/>
<path d="M232.164 38.6938H222.49V48.3673H232.164V38.6938Z" fill="black"/>
<path d="M241.838 38.6938H232.164V48.3673H241.838V38.6938Z" fill="black"/>
<path d="M251.509 38.6938H241.836V48.3673H251.509V38.6938Z" fill="black"/>
<path d="M261.183 38.6938H251.51V48.3673H261.183V38.6938Z" fill="black"/>
<path d="M309.55 38.6938H299.877V48.3673H309.55V38.6938Z" fill="black"/>
<path d="M319.224 38.6938H309.551V48.3673H319.224V38.6938Z" fill="black"/>
<path d="M357.918 38.6938H348.244V48.3673H357.918V38.6938Z" fill="black"/>
<path d="M135.429 48.3673H125.756V58.0408H135.429V48.3673Z" fill="black"/>
<path d="M154.775 48.3673H145.102V58.0408H154.775V48.3673Z" fill="black"/>
<path d="M183.797 48.3673H174.123V58.0408H183.797V48.3673Z" fill="black"/>
<path d="M203.142 48.3673H193.469V58.0408H203.142V48.3673Z" fill="black"/>
<path d="M222.49 48.3673H212.816V58.0408H222.49V48.3673Z" fill="black"/>
<path d="M241.838 48.3673H232.164V58.0408H241.838V48.3673Z" fill="black"/>
<path d="M261.183 48.3673H251.51V58.0408H261.183V48.3673Z" fill="black"/>
<path d="M280.531 48.3673H270.857V58.0408H280.531V48.3673Z" fill="black"/>
<path d="M290.205 48.3673H280.531V58.0408H290.205V48.3673Z" fill="black"/>
<path d="M299.877 48.3673H290.203V58.0408H299.877V48.3673Z" fill="black"/>
<path d="M309.55 48.3673H299.877V58.0408H309.55V48.3673Z" fill="black"/>
<path d="M328.898 48.3673H319.225V58.0408H328.898V48.3673Z" fill="black"/>
<path d="M357.918 48.3673H348.244V58.0408H357.918V48.3673Z" fill="black"/>
<path d="M125.756 58.0408H116.082V67.7142H125.756V58.0408Z" fill="black"/>
<path d="M135.429 58.0408H125.756V67.7142H135.429V58.0408Z" fill="black"/>
<path d="M145.101 58.0408H135.428V67.7142H145.101V58.0408Z" fill="black"/>
<path d="M154.775 58.0408H145.102V67.7142H154.775V58.0408Z" fill="black"/>
<path d="M183.797 58.0408H174.123V67.7142H183.797V58.0408Z" fill="black"/>
<path d="M193.47 58.0408H183.797V67.7142H193.47V58.0408Z" fill="black"/>
<path d="M203.142 58.0408H193.469V67.7142H203.142V58.0408Z" fill="black"/>
<path d="M232.164 58.0408H222.49V67.7142H232.164V58.0408Z" fill="black"/>
<path d="M270.857 58.0408H261.184V67.7142H270.857V58.0408Z" fill="black"/>
<path d="M319.224 58.0408H309.551V67.7142H319.224V58.0408Z" fill="black"/>
<path d="M348.246 58.0408H338.572V67.7142H348.246V58.0408Z" fill="black"/>
<path d="M125.756 67.7144H116.082V77.3878H125.756V67.7144Z" fill="black"/>
<path d="M154.775 67.7144H145.102V77.3878H154.775V67.7144Z" fill="black"/>
<path d="M193.47 67.7144H183.797V77.3878H193.47V67.7144Z" fill="black"/>
<path d="M222.49 67.7144H212.816V77.3878H222.49V67.7144Z" fill="black"/>
<path d="M251.509 67.7144H241.836V77.3878H251.509V67.7144Z" fill="black"/>
<path d="M299.877 67.7144H290.203V77.3878H299.877V67.7144Z" fill="black"/>
<path d="M309.55 67.7144H299.877V77.3878H309.55V67.7144Z" fill="black"/>
<path d="M328.898 67.7144H319.225V77.3878H328.898V67.7144Z" fill="black"/>
<path d="M338.572 67.7144H328.898V77.3878H338.572V67.7144Z" fill="black"/>
<path d="M357.918 67.7144H348.244V77.3878H357.918V67.7144Z" fill="black"/>
<path d="M125.756 77.3877H116.082V87.0612H125.756V77.3877Z" fill="black"/>
<path d="M135.429 77.3877H125.756V87.0612H135.429V77.3877Z" fill="black"/>
<path d="M174.123 77.3877H164.449V87.0612H174.123V77.3877Z" fill="black"/>
<path d="M183.797 77.3877H174.123V87.0612H183.797V77.3877Z" fill="black"/>
<path d="M193.47 77.3877H183.797V87.0612H193.47V77.3877Z" fill="black"/>
<path d="M232.164 77.3877H222.49V87.0612H232.164V77.3877Z" fill="black"/>
<path d="M251.509 77.3877H241.836V87.0612H251.509V77.3877Z" fill="black"/>
<path d="M261.183 77.3877H251.51V87.0612H261.183V77.3877Z" fill="black"/>
<path d="M270.857 77.3877H261.184V87.0612H270.857V77.3877Z" fill="black"/>
<path d="M280.531 77.3877H270.857V87.0612H280.531V77.3877Z" fill="black"/>
<path d="M299.877 77.3877H290.203V87.0612H299.877V77.3877Z" fill="black"/>
<path d="M348.246 77.3877H338.572V87.0612H348.246V77.3877Z" fill="black"/>
<path d="M125.756 87.0613H116.082V96.7347H125.756V87.0613Z" fill="black"/>
<path d="M145.101 87.0613H135.428V96.7347H145.101V87.0613Z" fill="black"/>
<path d="M154.775 87.0613H145.102V96.7347H154.775V87.0613Z" fill="black"/>
<path d="M164.449 87.0613H154.775V96.7347H164.449V87.0613Z" fill="black"/>
<path d="M212.816 87.0613H203.143V96.7347H212.816V87.0613Z" fill="black"/>
<path d="M241.838 87.0613H232.164V96.7347H241.838V87.0613Z" fill="black"/>
<path d="M261.183 87.0613H251.51V96.7347H261.183V87.0613Z" fill="black"/>
<path d="M280.531 87.0613H270.857V96.7347H280.531V87.0613Z" fill="black"/>
<path d="M290.205 87.0613H280.531V96.7347H290.205V87.0613Z" fill="black"/>
<path d="M299.877 87.0613H290.203V96.7347H299.877V87.0613Z" fill="black"/>
<path d="M309.55 87.0613H299.877V96.7347H309.55V87.0613Z" fill="black"/>
<path d="M319.224 87.0613H309.551V96.7347H319.224V87.0613Z" fill="black"/>
<path d="M328.898 87.0613H319.225V96.7347H328.898V87.0613Z" fill="black"/>
<path d="M338.572 87.0613H328.898V96.7347H338.572V87.0613Z" fill="black"/>
<path d="M357.918 87.0613H348.244V96.7347H357.918V87.0613Z" fill="black"/>
<path d="M125.756 96.7347H116.082V106.408H125.756V96.7347Z" fill="black"/>
<path d="M145.101 96.7347H135.428V106.408H145.101V96.7347Z" fill="black"/>
<path d="M164.449 96.7347H154.775V106.408H164.449V96.7347Z" fill="black"/>
<path d="M183.797 96.7347H174.123V106.408H183.797V96.7347Z" fill="black"/>
<path d="M203.142 96.7347H193.469V106.408H203.142V96.7347Z" fill="black"/>
<path d="M222.49 96.7347H212.816V106.408H222.49V96.7347Z" fill="black"/>
<path d="M241.838 96.7347H232.164V106.408H241.838V96.7347Z" fill="black"/>
<path d="M261.183 96.7347H251.51V106.408H261.183V96.7347Z" fill="black"/>
<path d="M280.531 96.7347H270.857V106.408H280.531V96.7347Z" fill="black"/>
<path d="M299.877 96.7347H290.203V106.408H299.877V96.7347Z" fill="black"/>
<path d="M319.224 96.7347H309.551V106.408H319.224V96.7347Z" fill="black"/>
<path d="M338.572 96.7347H328.898V106.408H338.572V96.7347Z" fill="black"/>
<path d="M357.918 96.7347H348.244V106.408H357.918V96.7347Z" fill="black"/>
<path d="M125.756 106.408H116.082V116.082H125.756V106.408Z" fill="black"/>
<path d="M135.429 106.408H125.756V116.082H135.429V106.408Z" fill="black"/>
<path d="M164.449 106.408H154.775V116.082H164.449V106.408Z" fill="black"/>
<path d="M174.123 106.408H164.449V116.082H174.123V106.408Z" fill="black"/>
<path d="M203.142 106.408H193.469V116.082H203.142V106.408Z" fill="black"/>
<path d="M232.164 106.408H222.49V116.082H232.164V106.408Z" fill="black"/>
<path d="M251.509 106.408H241.836V116.082H251.509V106.408Z" fill="black"/>
<path d="M270.857 106.408H261.184V116.082H270.857V106.408Z" fill="black"/>
<path d="M299.877 106.408H290.203V116.082H299.877V106.408Z" fill="black"/>
<path d="M328.898 106.408H319.225V116.082H328.898V106.408Z" fill="black"/>
<path d="M338.572 106.408H328.898V116.082H338.572V106.408Z" fill="black"/>
<path d="M348.246 106.408H338.572V116.082H348.246V106.408Z" fill="black"/>
<path d="M48.3668 116.082H38.6934V125.755H48.3668V116.082Z" fill="black"/>
<path d="M67.7145 116.082H58.041V125.755H67.7145V116.082Z" fill="black"/>
<path d="M77.3883 116.082H67.7148V125.755H77.3883V116.082Z" fill="black"/>
<path d="M87.0621 116.082H77.3887V125.755H87.0621V116.082Z" fill="black"/>
<path d="M96.734 116.082H87.0605V125.755H96.734V116.082Z" fill="black"/>
<path d="M106.408 116.082H96.7344V125.755H106.408V116.082Z" fill="black"/>
<path d="M145.101 116.082H135.428V125.755H145.101V116.082Z" fill="black"/>
<path d="M154.775 116.082H145.102V125.755H154.775V116.082Z" fill="black"/>
<path d="M164.449 116.082H154.775V125.755H164.449V116.082Z" fill="black"/>
<path d="M174.123 116.082H164.449V125.755H174.123V116.082Z" fill="black"/>
<path d="M193.47 116.082H183.797V125.755H193.47V116.082Z" fill="black"/>
<path d="M203.142 116.082H193.469V125.755H203.142V116.082Z" fill="black"/>
<path d="M251.509 116.082H241.836V125.755H251.509V116.082Z" fill="black"/>
<path d="M261.183 116.082H251.51V125.755H261.183V116.082Z" fill="black"/>
<path d="M280.531 116.082H270.857V125.755H280.531V116.082Z" fill="black"/>
<path d="M290.205 116.082H280.531V125.755H290.205V116.082Z" fill="black"/>
<path d="M309.55 116.082H299.877V125.755H309.55V116.082Z" fill="black"/>
<path d="M319.224 116.082H309.551V125.755H319.224V116.082Z" fill="black"/>
<path d="M328.898 116.082H319.225V125.755H328.898V116.082Z" fill="black"/>
<path d="M357.918 116.082H348.244V125.755H357.918V116.082Z" fill="black"/>
<path d="M377.265 116.082H367.592V125.755H377.265V116.082Z" fill="black"/>
<path d="M386.939 116.082H377.266V125.755H386.939V116.082Z" fill="black"/>
<path d="M396.613 116.082H386.939V125.755H396.613V116.082Z" fill="black"/>
<path d="M406.285 116.082H396.611V125.755H406.285V116.082Z" fill="black"/>
<path d="M415.959 116.082H406.285V125.755H415.959V116.082Z" fill="black"/>
<path d="M48.3668 125.755H38.6934V135.429H48.3668V125.755Z" fill="black"/>
<path d="M58.0407 125.755H48.3672V135.429H58.0407V125.755Z" fill="black"/>
<path d="M77.3883 125.755H67.7148V135.429H77.3883V125.755Z" fill="black"/>
<path d="M96.734 125.755H87.0605V135.429H96.734V125.755Z" fill="black"/>
<path d="M145.101 125.755H135.428V135.429H145.101V125.755Z" fill="black"/>
<path d="M174.123 125.755H164.449V135.429H174.123V125.755Z" fill="black"/>
<path d="M183.797 125.755H174.123V135.429H183.797V125.755Z" fill="black"/>
<path d="M193.47 125.755H183.797V135.429H193.47V125.755Z" fill="black"/>
<path d="M232.164 125.755H222.49V135.429H232.164V125.755Z" fill="black"/>
<path d="M251.509 125.755H241.836V135.429H251.509V125.755Z" fill="black"/>
<path d="M270.857 125.755H261.184V135.429H270.857V125.755Z" fill="black"/>
<path d="M299.877 125.755H290.203V135.429H299.877V125.755Z" fill="black"/>
<path d="M309.55 125.755H299.877V135.429H309.55V125.755Z" fill="black"/>
<path d="M319.224 125.755H309.551V135.429H319.224V125.755Z" fill="black"/>
<path d="M348.246 125.755H338.572V135.429H348.246V125.755Z" fill="black"/>
<path d="M357.918 125.755H348.244V135.429H357.918V125.755Z" fill="black"/>
<path d="M386.939 125.755H377.266V135.429H386.939V125.755Z" fill="black"/>
<path d="M396.613 125.755H386.939V135.429H396.613V125.755Z" fill="black"/>
<path d="M406.285 125.755H396.611V135.429H406.285V125.755Z" fill="black"/>
<path d="M435.306 125.755H425.633V135.429H435.306V125.755Z" fill="black"/>
<path d="M48.3668 135.429H38.6934V145.102H48.3668V135.429Z" fill="black"/>
<path d="M77.3883 135.429H67.7148V145.102H77.3883V135.429Z" fill="black"/>
<path d="M87.0621 135.429H77.3887V145.102H87.0621V135.429Z" fill="black"/>
<path d="M96.734 135.429H87.0605V145.102H96.734V135.429Z" fill="black"/>
<path d="M106.408 135.429H96.7344V145.102H106.408V135.429Z" fill="black"/>
<path d="M125.756 135.429H116.082V145.102H125.756V135.429Z" fill="black"/>
<path d="M135.429 135.429H125.756V145.102H135.429V135.429Z" fill="black"/>
<path d="M154.775 135.429H145.102V145.102H154.775V135.429Z" fill="black"/>
<path d="M193.47 135.429H183.797V145.102H193.47V135.429Z" fill="black"/>
<path d="M212.816 135.429H203.143V145.102H212.816V135.429Z" fill="black"/>
<path d="M222.49 135.429H212.816V145.102H222.49V135.429Z" fill="black"/>
<path d="M241.838 135.429H232.164V145.102H241.838V135.429Z" fill="black"/>
<path d="M270.857 135.429H261.184V145.102H270.857V135.429Z" fill="black"/>
<path d="M280.531 135.429H270.857V145.102H280.531V135.429Z" fill="black"/>
<path d="M290.205 135.429H280.531V145.102H290.205V135.429Z" fill="black"/>
<path d="M328.898 135.429H319.225V145.102H328.898V135.429Z" fill="black"/>
<path d="M338.572 135.429H328.898V145.102H338.572V135.429Z" fill="black"/>
<path d="M348.246 135.429H338.572V145.102H348.246V135.429Z" fill="black"/>
<path d="M415.959 135.429H406.285V145.102H415.959V135.429Z" fill="black"/>
<path d="M425.632 135.429H415.959V145.102H425.632V135.429Z" fill="black"/>
<path d="M48.3668 145.102H38.6934V154.776H48.3668V145.102Z" fill="black"/>
<path d="M58.0407 145.102H48.3672V154.776H58.0407V145.102Z" fill="black"/>
<path d="M67.7145 145.102H58.041V154.776H67.7145V145.102Z" fill="black"/>
<path d="M77.3883 145.102H67.7148V154.776H77.3883V145.102Z" fill="black"/>
<path d="M174.123 145.102H164.449V154.776H174.123V145.102Z" fill="black"/>
<path d="M183.797 145.102H174.123V154.776H183.797V145.102Z" fill="black"/>
<path d="M203.142 145.102H193.469V154.776H203.142V145.102Z" fill="black"/>
<path d="M232.164 145.102H222.49V154.776H232.164V145.102Z" fill="black"/>
<path d="M241.838 145.102H232.164V154.776H241.838V145.102Z" fill="black"/>
<path d="M251.509 145.102H241.836V154.776H251.509V145.102Z" fill="black"/>
<path d="M261.183 145.102H251.51V154.776H261.183V145.102Z" fill="black"/>
<path d="M270.857 145.102H261.184V154.776H270.857V145.102Z" fill="black"/>
<path d="M290.205 145.102H280.531V154.776H290.205V145.102Z" fill="black"/>
<path d="M299.877 145.102H290.203V154.776H299.877V145.102Z" fill="black"/>
<path d="M319.224 145.102H309.551V154.776H319.224V145.102Z" fill="black"/>
<path d="M328.898 145.102H319.225V154.776H328.898V145.102Z" fill="black"/>
<path d="M348.246 145.102H338.572V154.776H348.246V145.102Z" fill="black"/>
<path d="M377.265 145.102H367.592V154.776H377.265V145.102Z" fill="black"/>
<path d="M386.939 145.102H377.266V154.776H386.939V145.102Z" fill="black"/>
<path d="M396.613 145.102H386.939V154.776H396.613V145.102Z" fill="black"/>
<path d="M406.285 145.102H396.611V154.776H406.285V145.102Z" fill="black"/>
<path d="M435.306 145.102H425.633V154.776H435.306V145.102Z" fill="black"/>
<path d="M58.0407 154.776H48.3672V164.449H58.0407V154.776Z" fill="black"/>
<path d="M67.7145 154.776H58.041V164.449H67.7145V154.776Z" fill="black"/>
<path d="M96.734 154.776H87.0605V164.449H96.734V154.776Z" fill="black"/>
<path d="M106.408 154.776H96.7344V164.449H106.408V154.776Z" fill="black"/>
<path d="M125.756 154.776H116.082V164.449H125.756V154.776Z" fill="black"/>
<path d="M135.429 154.776H125.756V164.449H135.429V154.776Z" fill="black"/>
<path d="M145.101 154.776H135.428V164.449H145.101V154.776Z" fill="black"/>
<path d="M154.775 154.776H145.102V164.449H154.775V154.776Z" fill="black"/>
<path d="M164.449 154.776H154.775V164.449H164.449V154.776Z" fill="black"/>
<path d="M212.816 154.776H203.143V164.449H212.816V154.776Z" fill="black"/>
<path d="M222.49 154.776H212.816V164.449H222.49V154.776Z" fill="black"/>
<path d="M261.183 154.776H251.51V164.449H261.183V154.776Z" fill="black"/>
<path d="M280.531 154.776H270.857V164.449H280.531V154.776Z" fill="black"/>
<path d="M309.55 154.776H299.877V164.449H309.55V154.776Z" fill="black"/>
<path d="M319.224 154.776H309.551V164.449H319.224V154.776Z" fill="black"/>
<path d="M338.572 154.776H328.898V164.449H338.572V154.776Z" fill="black"/>
<path d="M357.918 154.776H348.244V164.449H357.918V154.776Z" fill="black"/>
<path d="M386.939 154.776H377.266V164.449H386.939V154.776Z" fill="black"/>
<path d="M396.613 154.776H386.939V164.449H396.613V154.776Z" fill="black"/>
<path d="M425.632 154.776H415.959V164.449H425.632V154.776Z" fill="black"/>
<path d="M58.0407 164.449H48.3672V174.122H58.0407V164.449Z" fill="black"/>
<path d="M67.7145 164.449H58.041V174.122H67.7145V164.449Z" fill="black"/>
<path d="M77.3883 164.449H67.7148V174.122H77.3883V164.449Z" fill="black"/>
<path d="M87.0621 164.449H77.3887V174.122H87.0621V164.449Z" fill="black"/>
<path d="M116.082 164.449H106.408V174.122H116.082V164.449Z" fill="black"/>
<path d="M125.756 164.449H116.082V174.122H125.756V164.449Z" fill="black"/>
<path d="M164.449 164.449H154.775V174.122H164.449V164.449Z" fill="black"/>
<path d="M174.123 164.449H164.449V174.122H174.123V164.449Z" fill="black"/>
<path d="M193.47 164.449H183.797V174.122H193.47V164.449Z" fill="black"/>
<path d="M203.142 164.449H193.469V174.122H203.142V164.449Z" fill="black"/>
<path d="M222.49 164.449H212.816V174.122H222.49V164.449Z" fill="black"/>
<path d="M241.838 164.449H232.164V174.122H241.838V164.449Z" fill="black"/>
<path d="M251.509 164.449H241.836V174.122H251.509V164.449Z" fill="black"/>
<path d="M261.183 164.449H251.51V174.122H261.183V164.449Z" fill="black"/>
<path d="M270.857 164.449H261.184V174.122H270.857V164.449Z" fill="black"/>
<path d="M299.877 164.449H290.203V174.122H299.877V164.449Z" fill="black"/>
<path d="M338.572 164.449H328.898V174.122H338.572V164.449Z" fill="black"/>
<path d="M348.246 164.449H338.572V174.122H348.246V164.449Z" fill="black"/>
<path d="M357.918 164.449H348.244V174.122H357.918V164.449Z" fill="black"/>
<path d="M406.285 164.449H396.611V174.122H406.285V164.449Z" fill="black"/>
<path d="M435.306 164.449H425.633V174.122H435.306V164.449Z" fill="black"/>
<path d="M48.3668 174.122H38.6934V183.796H48.3668V174.122Z" fill="black"/>
<path d="M58.0407 174.122H48.3672V183.796H58.0407V174.122Z" fill="black"/>
<path d="M77.3883 174.122H67.7148V183.796H77.3883V174.122Z" fill="black"/>
<path d="M87.0621 174.122H77.3887V183.796H87.0621V174.122Z" fill="black"/>
<path d="M96.734 174.122H87.0605V183.796H96.734V174.122Z" fill="black"/>
<path d="M106.408 174.122H96.7344V183.796H106.408V174.122Z" fill="black"/>
<path d="M135.429 174.122H125.756V183.796H135.429V174.122Z" fill="black"/>
<path d="M164.449 174.122H154.775V183.796H164.449V174.122Z" fill="black"/>
<path d="M174.123 174.122H164.449V183.796H174.123V174.122Z" fill="black"/>
<path d="M183.797 174.122H174.123V183.796H183.797V174.122Z" fill="black"/>
<path d="M203.142 174.122H193.469V183.796H203.142V174.122Z" fill="black"/>
<path d="M212.816 174.122H203.143V183.796H212.816V174.122Z" fill="black"/>
<path d="M222.49 174.122H212.816V183.796H222.49V174.122Z" fill="black"/>
<path d="M232.164 174.122H222.49V183.796H232.164V174.122Z" fill="black"/>
<path d="M270.857 174.122H261.184V183.796H270.857V174.122Z" fill="black"/>
<path d="M280.531 174.122H270.857V183.796H280.531V174.122Z" fill="black"/>
<path d="M290.205 174.122H280.531V183.796H290.205V174.122Z" fill="black"/>
<path d="M299.877 174.122H290.203V183.796H299.877V174.122Z" fill="black"/>
<path d="M309.55 174.122H299.877V183.796H309.55V174.122Z" fill="black"/>
<path d="M328.898 174.122H319.225V183.796H328.898V174.122Z" fill="black"/>
<path d="M338.572 174.122H328.898V183.796H338.572V174.122Z" fill="black"/>
<path d="M348.246 174.122H338.572V183.796H348.246V174.122Z" fill="black"/>
<path d="M357.918 174.122H348.244V183.796H357.918V174.122Z" fill="black"/>
<path d="M386.939 174.122H377.266V183.796H386.939V174.122Z" fill="black"/>
<path d="M406.285 174.122H396.611V183.796H406.285V174.122Z" fill="black"/>
<path d="M415.959 174.122H406.285V183.796H415.959V174.122Z" fill="black"/>
<path d="M125.756 183.796H116.082V193.469H125.756V183.796Z" fill="black"/>
<path d="M135.429 183.796H125.756V193.469H135.429V183.796Z" fill="black"/>
<path d="M145.101 183.796H135.428V193.469H145.101V183.796Z" fill="black"/>
<path d="M154.775 183.796H145.102V193.469H154.775V183.796Z" fill="black"/>
<path d="M164.449 183.796H154.775V193.469H164.449V183.796Z" fill="black"/>
<path d="M193.47 183.796H183.797V193.469H193.47V183.796Z" fill="black"/>
<path d="M203.142 183.796H193.469V193.469H203.142V183.796Z" fill="black"/>
<path d="M232.164 183.796H222.49V193.469H232.164V183.796Z" fill="black"/>
<path d="M241.838 183.796H232.164V193.469H241.838V183.796Z" fill="black"/>
<path d="M251.509 183.796H241.836V193.469H251.509V183.796Z" fill="black"/>
<path d="M261.183 183.796H251.51V193.469H261.183V183.796Z" fill="black"/>
<path d="M270.857 183.796H261.184V193.469H270.857V183.796Z" fill="black"/>
<path d="M319.224 183.796H309.551V193.469H319.224V183.796Z" fill="black"/>
<path d="M328.898 183.796H319.225V193.469H328.898V183.796Z" fill="black"/>
<path d="M357.918 183.796H348.244V193.469H357.918V183.796Z" fill="black"/>
<path d="M377.265 183.796H367.592V193.469H377.265V183.796Z" fill="black"/>
<path d="M386.939 183.796H377.266V193.469H386.939V183.796Z" fill="black"/>
<path d="M396.613 183.796H386.939V193.469H396.613V183.796Z" fill="black"/>
<path d="M435.306 183.796H425.633V193.469H435.306V183.796Z" fill="black"/>
<path d="M67.7145 193.469H58.041V203.143H67.7145V193.469Z" fill="black"/>
<path d="M87.0621 193.469H77.3887V203.143H87.0621V193.469Z" fill="black"/>
<path d="M106.408 193.469H96.7344V203.143H106.408V193.469Z" fill="black"/>
<path d="M125.756 193.469H116.082V203.143H125.756V193.469Z" fill="black"/>
<path d="M145.101 193.469H135.428V203.143H145.101V193.469Z" fill="black"/>
<path d="M154.775 193.469H145.102V203.143H154.775V193.469Z" fill="black"/>
<path d="M174.123 193.469H164.449V203.143H174.123V193.469Z" fill="black"/>
<path d="M183.797 193.469H174.123V203.143H183.797V193.469Z" fill="black"/>
<path d="M212.816 193.469H203.143V203.143H212.816V193.469Z" fill="black"/>
<path d="M232.164 193.469H222.49V203.143H232.164V193.469Z" fill="black"/>
<path d="M280.531 193.469H270.857V203.143H280.531V193.469Z" fill="black"/>
<path d="M290.205 193.469H280.531V203.143H290.205V193.469Z" fill="black"/>
<path d="M309.55 193.469H299.877V203.143H309.55V193.469Z" fill="black"/>
<path d="M338.572 193.469H328.898V203.143H338.572V193.469Z" fill="black"/>
<path d="M357.918 193.469H348.244V203.143H357.918V193.469Z" fill="black"/>
<path d="M367.591 193.469H357.918V203.143H367.591V193.469Z" fill="black"/>
<path d="M396.613 193.469H386.939V203.143H396.613V193.469Z" fill="black"/>
<path d="M415.959 193.469H406.285V203.143H415.959V193.469Z" fill="black"/>
<path d="M425.632 193.469H415.959V203.143H425.632V193.469Z" fill="black"/>
<path d="M48.3668 203.143H38.6934V212.816H48.3668V203.143Z" fill="black"/>
<path d="M67.7145 203.143H58.041V212.816H67.7145V203.143Z" fill="black"/>
<path d="M77.3883 203.143H67.7148V212.816H77.3883V203.143Z" fill="black"/>
<path d="M96.734 203.143H87.0605V212.816H96.734V203.143Z" fill="black"/>
<path d="M116.082 203.143H106.408V212.816H116.082V203.143Z" fill="black"/>
<path d="M125.756 203.143H116.082V212.816H125.756V203.143Z" fill="black"/>
<path d="M145.101 203.143H135.428V212.816H145.101V203.143Z" fill="black"/>
<path d="M164.449 203.143H154.775V212.816H164.449V203.143Z" fill="black"/>
<path d="M212.816 203.143H203.143V212.816H212.816V203.143Z" fill="black"/>
<path d="M222.49 203.143H212.816V212.816H222.49V203.143Z" fill="black"/>
<path d="M232.164 203.143H222.49V212.816H232.164V203.143Z" fill="black"/>
<path d="M241.838 203.143H232.164V212.816H241.838V203.143Z" fill="black"/>
<path d="M251.509 203.143H241.836V212.816H251.509V203.143Z" fill="black"/>
<path d="M261.183 203.143H251.51V212.816H261.183V203.143Z" fill="black"/>
<path d="M270.857 203.143H261.184V212.816H270.857V203.143Z" fill="black"/>
<path d="M299.877 203.143H290.203V212.816H299.877V203.143Z" fill="black"/>
<path d="M319.224 203.143H309.551V212.816H319.224V203.143Z" fill="black"/>
<path d="M338.572 203.143H328.898V212.816H338.572V203.143Z" fill="black"/>
<path d="M348.246 203.143H338.572V212.816H348.246V203.143Z" fill="black"/>
<path d="M367.591 203.143H357.918V212.816H367.591V203.143Z" fill="black"/>
<path d="M386.939 203.143H377.266V212.816H386.939V203.143Z" fill="black"/>
<path d="M396.613 203.143H386.939V212.816H396.613V203.143Z" fill="black"/>
<path d="M77.3883 212.816H67.7148V222.49H77.3883V212.816Z" fill="black"/>
<path d="M96.734 212.816H87.0605V222.49H96.734V212.816Z" fill="black"/>
<path d="M106.408 212.816H96.7344V222.49H106.408V212.816Z" fill="black"/>
<path d="M116.082 212.816H106.408V222.49H116.082V212.816Z" fill="black"/>
<path d="M125.756 212.816H116.082V222.49H125.756V212.816Z" fill="black"/>
<path d="M135.429 212.816H125.756V222.49H135.429V212.816Z" fill="black"/>
<path d="M145.101 212.816H135.428V222.49H145.101V212.816Z" fill="black"/>
<path d="M154.775 212.816H145.102V222.49H154.775V212.816Z" fill="black"/>
<path d="M164.449 212.816H154.775V222.49H164.449V212.816Z" fill="black"/>
<path d="M174.123 212.816H164.449V222.49H174.123V212.816Z" fill="black"/>
<path d="M183.797 212.816H174.123V222.49H183.797V212.816Z" fill="black"/>
<path d="M212.816 212.816H203.143V222.49H212.816V212.816Z" fill="black"/>
<path d="M261.183 212.816H251.51V222.49H261.183V212.816Z" fill="black"/>
<path d="M280.531 212.816H270.857V222.49H280.531V212.816Z" fill="black"/>
<path d="M290.205 212.816H280.531V222.49H290.205V212.816Z" fill="black"/>
<path d="M309.55 212.816H299.877V222.49H309.55V212.816Z" fill="black"/>
<path d="M319.224 212.816H309.551V222.49H319.224V212.816Z" fill="black"/>
<path d="M328.898 212.816H319.225V222.49H328.898V212.816Z" fill="black"/>
<path d="M357.918 212.816H348.244V222.49H357.918V212.816Z" fill="black"/>
<path d="M386.939 212.816H377.266V222.49H386.939V212.816Z" fill="black"/>
<path d="M406.285 212.816H396.611V222.49H406.285V212.816Z" fill="black"/>
<path d="M415.959 212.816H406.285V222.49H415.959V212.816Z" fill="black"/>
<path d="M48.3668 222.49H38.6934V232.163H48.3668V222.49Z" fill="black"/>
<path d="M58.0407 222.49H48.3672V232.163H58.0407V222.49Z" fill="black"/>
<path d="M77.3883 222.49H67.7148V232.163H77.3883V222.49Z" fill="black"/>
<path d="M96.734 222.49H87.0605V232.163H96.734V222.49Z" fill="black"/>
<path d="M116.082 222.49H106.408V232.163H116.082V222.49Z" fill="black"/>
<path d="M135.429 222.49H125.756V232.163H135.429V222.49Z" fill="black"/>
<path d="M174.123 222.49H164.449V232.163H174.123V222.49Z" fill="black"/>
<path d="M183.797 222.49H174.123V232.163H183.797V222.49Z" fill="black"/>
<path d="M193.47 222.49H183.797V232.163H193.47V222.49Z" fill="black"/>
<path d="M212.816 222.49H203.143V232.163H212.816V222.49Z" fill="black"/>
<path d="M222.49 222.49H212.816V232.163H222.49V222.49Z" fill="black"/>
<path d="M232.164 222.49H222.49V232.163H232.164V222.49Z" fill="black"/>
<path d="M241.838 222.49H232.164V232.163H241.838V222.49Z" fill="black"/>
<path d="M251.509 222.49H241.836V232.163H251.509V222.49Z" fill="black"/>
<path d="M261.183 222.49H251.51V232.163H261.183V222.49Z" fill="black"/>
<path d="M270.857 222.49H261.184V232.163H270.857V222.49Z" fill="black"/>
<path d="M290.205 222.49H280.531V232.163H290.205V222.49Z" fill="black"/>
<path d="M299.877 222.49H290.203V232.163H299.877V222.49Z" fill="black"/>
<path d="M328.898 222.49H319.225V232.163H328.898V222.49Z" fill="black"/>
<path d="M338.572 222.49H328.898V232.163H338.572V222.49Z" fill="black"/>
<path d="M348.246 222.49H338.572V232.163H348.246V222.49Z" fill="black"/>
<path d="M377.265 222.49H367.592V232.163H377.265V222.49Z" fill="black"/>
<path d="M386.939 222.49H377.266V232.163H386.939V222.49Z" fill="black"/>
<path d="M396.613 222.49H386.939V232.163H396.613V222.49Z" fill="black"/>
<path d="M435.306 222.49H425.633V232.163H435.306V222.49Z" fill="black"/>
<path d="M67.7145 232.163H58.041V241.837H67.7145V232.163Z" fill="black"/>
<path d="M96.734 232.163H87.0605V241.837H96.734V232.163Z" fill="black"/>
<path d="M106.408 232.163H96.7344V241.837H106.408V232.163Z" fill="black"/>
<path d="M135.429 232.163H125.756V241.837H135.429V232.163Z" fill="black"/>
<path d="M164.449 232.163H154.775V241.837H164.449V232.163Z" fill="black"/>
<path d="M183.797 232.163H174.123V241.837H183.797V232.163Z" fill="black"/>
<path d="M203.142 232.163H193.469V241.837H203.142V232.163Z" fill="black"/>
<path d="M251.509 232.163H241.836V241.837H251.509V232.163Z" fill="black"/>
<path d="M261.183 232.163H251.51V241.837H261.183V232.163Z" fill="black"/>
<path d="M299.877 232.163H290.203V241.837H299.877V232.163Z" fill="black"/>
<path d="M309.55 232.163H299.877V241.837H309.55V232.163Z" fill="black"/>
<path d="M328.898 232.163H319.225V241.837H328.898V232.163Z" fill="black"/>
<path d="M357.918 232.163H348.244V241.837H357.918V232.163Z" fill="black"/>
<path d="M367.591 232.163H357.918V241.837H367.591V232.163Z" fill="black"/>
<path d="M386.939 232.163H377.266V241.837H386.939V232.163Z" fill="black"/>
<path d="M415.959 232.163H406.285V241.837H415.959V232.163Z" fill="black"/>
<path d="M48.3668 241.837H38.6934V251.51H48.3668V241.837Z" fill="black"/>
<path d="M58.0407 241.837H48.3672V251.51H58.0407V241.837Z" fill="black"/>
<path d="M87.0621 241.837H77.3887V251.51H87.0621V241.837Z" fill="black"/>
<path d="M96.734 241.837H87.0605V251.51H96.734V241.837Z" fill="black"/>
<path d="M125.756 241.837H116.082V251.51H125.756V241.837Z" fill="black"/>
<path d="M135.429 241.837H125.756V251.51H135.429V241.837Z" fill="black"/>
<path d="M145.101 241.837H135.428V251.51H145.101V241.837Z" fill="black"/>
<path d="M164.449 241.837H154.775V251.51H164.449V241.837Z" fill="black"/>
<path d="M193.47 241.837H183.797V251.51H193.47V241.837Z" fill="black"/>
<path d="M222.49 241.837H212.816V251.51H222.49V241.837Z" fill="black"/>
<path d="M241.838 241.837H232.164V251.51H241.838V241.837Z" fill="black"/>
<path d="M251.509 241.837H241.836V251.51H251.509V241.837Z" fill="black"/>
<path d="M261.183 241.837H251.51V251.51H261.183V241.837Z" fill="black"/>
<path d="M299.877 241.837H290.203V251.51H299.877V241.837Z" fill="black"/>
<path d="M309.55 241.837H299.877V251.51H309.55V241.837Z" fill="black"/>
<path d="M377.265 241.837H367.592V251.51H377.265V241.837Z" fill="black"/>
<path d="M386.939 241.837H377.266V251.51H386.939V241.837Z" fill="black"/>
<path d="M425.632 241.837H415.959V251.51H425.632V241.837Z" fill="black"/>
<path d="M48.3668 251.51H38.6934V261.184H48.3668V251.51Z" fill="black"/>
<path d="M87.0621 251.51H77.3887V261.184H87.0621V251.51Z" fill="black"/>
<path d="M96.734 251.51H87.0605V261.184H96.734V251.51Z" fill="black"/>
<path d="M106.408 251.51H96.7344V261.184H106.408V251.51Z" fill="black"/>
<path d="M125.756 251.51H116.082V261.184H125.756V251.51Z" fill="black"/>
<path d="M135.429 251.51H125.756V261.184H135.429V251.51Z" fill="black"/>
<path d="M145.101 251.51H135.428V261.184H145.101V251.51Z" fill="black"/>
<path d="M164.449 251.51H154.775V261.184H164.449V251.51Z" fill="black"/>
<path d="M183.797 251.51H174.123V261.184H183.797V251.51Z" fill="black"/>
<path d="M212.816 251.51H203.143V261.184H212.816V251.51Z" fill="black"/>
<path d="M222.49 251.51H212.816V261.184H222.49V251.51Z" fill="black"/>
<path d="M261.183 251.51H251.51V261.184H261.183V251.51Z" fill="black"/>
<path d="M290.205 251.51H280.531V261.184H290.205V251.51Z" fill="black"/>
<path d="M309.55 251.51H299.877V261.184H309.55V251.51Z" fill="black"/>
<path d="M319.224 251.51H309.551V261.184H319.224V251.51Z" fill="black"/>
<path d="M328.898 251.51H319.225V261.184H328.898V251.51Z" fill="black"/>
<path d="M357.918 251.51H348.244V261.184H357.918V251.51Z" fill="black"/>
<path d="M367.591 251.51H357.918V261.184H367.591V251.51Z" fill="black"/>
<path d="M386.939 251.51H377.266V261.184H386.939V251.51Z" fill="black"/>
<path d="M406.285 251.51H396.611V261.184H406.285V251.51Z" fill="black"/>
<path d="M415.959 251.51H406.285V261.184H415.959V251.51Z" fill="black"/>
<path d="M67.7145 261.184H58.041V270.857H67.7145V261.184Z" fill="black"/>
<path d="M96.734 261.184H87.0605V270.857H96.734V261.184Z" fill="black"/>
<path d="M125.756 261.184H116.082V270.857H125.756V261.184Z" fill="black"/>
<path d="M174.123 261.184H164.449V270.857H174.123V261.184Z" fill="black"/>
<path d="M193.47 261.184H183.797V270.857H193.47V261.184Z" fill="black"/>
<path d="M212.816 261.184H203.143V270.857H212.816V261.184Z" fill="black"/>
<path d="M222.49 261.184H212.816V270.857H222.49V261.184Z" fill="black"/>
<path d="M232.164 261.184H222.49V270.857H232.164V261.184Z" fill="black"/>
<path d="M241.838 261.184H232.164V270.857H241.838V261.184Z" fill="black"/>
<path d="M251.509 261.184H241.836V270.857H251.509V261.184Z" fill="black"/>
<path d="M270.857 261.184H261.184V270.857H270.857V261.184Z" fill="black"/>
<path d="M280.531 261.184H270.857V270.857H280.531V261.184Z" fill="black"/>
<path d="M290.205 261.184H280.531V270.857H290.205V261.184Z" fill="black"/>
<path d="M338.572 261.184H328.898V270.857H338.572V261.184Z" fill="black"/>
<path d="M348.246 261.184H338.572V270.857H348.246V261.184Z" fill="black"/>
<path d="M377.265 261.184H367.592V270.857H377.265V261.184Z" fill="black"/>
<path d="M396.613 261.184H386.939V270.857H396.613V261.184Z" fill="black"/>
<path d="M425.632 261.184H415.959V270.857H425.632V261.184Z" fill="black"/>
<path d="M435.306 261.184H425.633V270.857H435.306V261.184Z" fill="black"/>
<path d="M67.7145 270.857H58.041V280.531H67.7145V270.857Z" fill="black"/>
<path d="M87.0621 270.857H77.3887V280.531H87.0621V270.857Z" fill="black"/>
<path d="M106.408 270.857H96.7344V280.531H106.408V270.857Z" fill="black"/>
<path d="M116.082 270.857H106.408V280.531H116.082V270.857Z" fill="black"/>
<path d="M145.101 270.857H135.428V280.531H145.101V270.857Z" fill="black"/>
<path d="M154.775 270.857H145.102V280.531H154.775V270.857Z" fill="black"/>
<path d="M203.142 270.857H193.469V280.531H203.142V270.857Z" fill="black"/>
<path d="M212.816 270.857H203.143V280.531H212.816V270.857Z" fill="black"/>
<path d="M251.509 270.857H241.836V280.531H251.509V270.857Z" fill="black"/>
<path d="M261.183 270.857H251.51V280.531H261.183V270.857Z" fill="black"/>
<path d="M290.205 270.857H280.531V280.531H290.205V270.857Z" fill="black"/>
<path d="M299.877 270.857H290.203V280.531H299.877V270.857Z" fill="black"/>
<path d="M309.55 270.857H299.877V280.531H309.55V270.857Z" fill="black"/>
<path d="M328.898 270.857H319.225V280.531H328.898V270.857Z" fill="black"/>
<path d="M367.591 270.857H357.918V280.531H367.591V270.857Z" fill="black"/>
<path d="M377.265 270.857H367.592V280.531H377.265V270.857Z" fill="black"/>
<path d="M386.939 270.857H377.266V280.531H386.939V270.857Z" fill="black"/>
<path d="M415.959 270.857H406.285V280.531H415.959V270.857Z" fill="black"/>
<path d="M425.632 270.857H415.959V280.531H425.632V270.857Z" fill="black"/>
<path d="M435.306 270.857H425.633V280.531H435.306V270.857Z" fill="black"/>
<path d="M48.3668 280.531H38.6934V290.204H48.3668V280.531Z" fill="black"/>
<path d="M67.7145 280.531H58.041V290.204H67.7145V280.531Z" fill="black"/>
<path d="M87.0621 280.531H77.3887V290.204H87.0621V280.531Z" fill="black"/>
<path d="M135.429 280.531H125.756V290.204H135.429V280.531Z" fill="black"/>
<path d="M154.775 280.531H145.102V290.204H154.775V280.531Z" fill="black"/>
<path d="M174.123 280.531H164.449V290.204H174.123V280.531Z" fill="black"/>
<path d="M183.797 280.531H174.123V290.204H183.797V280.531Z" fill="black"/>
<path d="M193.47 280.531H183.797V290.204H193.47V280.531Z" fill="black"/>
<path d="M203.142 280.531H193.469V290.204H203.142V280.531Z" fill="black"/>
<path d="M232.164 280.531H222.49V290.204H232.164V280.531Z" fill="black"/>
<path d="M241.838 280.531H232.164V290.204H241.838V280.531Z" fill="black"/>
<path d="M251.509 280.531H241.836V290.204H251.509V280.531Z" fill="black"/>
<path d="M261.183 280.531H251.51V290.204H261.183V280.531Z" fill="black"/>
<path d="M280.531 280.531H270.857V290.204H280.531V280.531Z" fill="black"/>
<path d="M338.572 280.531H328.898V290.204H338.572V280.531Z" fill="black"/>
<path d="M348.246 280.531H338.572V290.204H348.246V280.531Z" fill="black"/>
<path d="M396.613 280.531H386.939V290.204H396.613V280.531Z" fill="black"/>
<path d="M406.285 280.531H396.611V290.204H406.285V280.531Z" fill="black"/>
<path d="M58.0407 290.204H48.3672V299.878H58.0407V290.204Z" fill="black"/>
<path d="M77.3883 290.204H67.7148V299.878H77.3883V290.204Z" fill="black"/>
<path d="M87.0621 290.204H77.3887V299.878H87.0621V290.204Z" fill="black"/>
<path d="M106.408 290.204H96.7344V299.878H106.408V290.204Z" fill="black"/>
<path d="M116.082 290.204H106.408V299.878H116.082V290.204Z" fill="black"/>
<path d="M125.756 290.204H116.082V299.878H125.756V290.204Z" fill="black"/>
<path d="M135.429 290.204H125.756V299.878H135.429V290.204Z" fill="black"/>
<path d="M145.101 290.204H135.428V299.878H145.101V290.204Z" fill="black"/>
<path d="M154.775 290.204H145.102V299.878H154.775V290.204Z" fill="black"/>
<path d="M174.123 290.204H164.449V299.878H174.123V290.204Z" fill="black"/>
<path d="M183.797 290.204H174.123V299.878H183.797V290.204Z" fill="black"/>
<path d="M212.816 290.204H203.143V299.878H212.816V290.204Z" fill="black"/>
<path d="M222.49 290.204H212.816V299.878H222.49V290.204Z" fill="black"/>
<path d="M232.164 290.204H222.49V299.878H232.164V290.204Z" fill="black"/>
<path d="M280.531 290.204H270.857V299.878H280.531V290.204Z" fill="black"/>
<path d="M290.205 290.204H280.531V299.878H290.205V290.204Z" fill="black"/>
<path d="M309.55 290.204H299.877V299.878H309.55V290.204Z" fill="black"/>
<path d="M319.224 290.204H309.551V299.878H319.224V290.204Z" fill="black"/>
<path d="M328.898 290.204H319.225V299.878H328.898V290.204Z" fill="black"/>
<path d="M338.572 290.204H328.898V299.878H338.572V290.204Z" fill="black"/>
<path d="M348.246 290.204H338.572V299.878H348.246V290.204Z" fill="black"/>
<path d="M357.918 290.204H348.244V299.878H357.918V290.204Z" fill="black"/>
<path d="M386.939 290.204H377.266V299.878H386.939V290.204Z" fill="black"/>
<path d="M415.959 290.204H406.285V299.878H415.959V290.204Z" fill="black"/>
<path d="M425.632 290.204H415.959V299.878H425.632V290.204Z" fill="black"/>
<path d="M48.3668 299.878H38.6934V309.551H48.3668V299.878Z" fill="black"/>
<path d="M58.0407 299.878H48.3672V309.551H58.0407V299.878Z" fill="black"/>
<path d="M67.7145 299.878H58.041V309.551H67.7145V299.878Z" fill="black"/>
<path d="M116.082 299.878H106.408V309.551H116.082V299.878Z" fill="black"/>
<path d="M135.429 299.878H125.756V309.551H135.429V299.878Z" fill="black"/>
<path d="M174.123 299.878H164.449V309.551H174.123V299.878Z" fill="black"/>
<path d="M183.797 299.878H174.123V309.551H183.797V299.878Z" fill="black"/>
<path d="M193.47 299.878H183.797V309.551H193.47V299.878Z" fill="black"/>
<path d="M232.164 299.878H222.49V309.551H232.164V299.878Z" fill="black"/>
<path d="M261.183 299.878H251.51V309.551H261.183V299.878Z" fill="black"/>
<path d="M270.857 299.878H261.184V309.551H270.857V299.878Z" fill="black"/>
<path d="M290.205 299.878H280.531V309.551H290.205V299.878Z" fill="black"/>
<path d="M319.224 299.878H309.551V309.551H319.224V299.878Z" fill="black"/>
<path d="M328.898 299.878H319.225V309.551H328.898V299.878Z" fill="black"/>
<path d="M348.246 299.878H338.572V309.551H348.246V299.878Z" fill="black"/>
<path d="M377.265 299.878H367.592V309.551H377.265V299.878Z" fill="black"/>
<path d="M396.613 299.878H386.939V309.551H396.613V299.878Z" fill="black"/>
<path d="M415.959 299.878H406.285V309.551H415.959V299.878Z" fill="black"/>
<path d="M435.306 299.878H425.633V309.551H435.306V299.878Z" fill="black"/>
<path d="M58.0407 309.551H48.3672V319.224H58.0407V309.551Z" fill="black"/>
<path d="M67.7145 309.551H58.041V319.224H67.7145V309.551Z" fill="black"/>
<path d="M77.3883 309.551H67.7148V319.224H77.3883V309.551Z" fill="black"/>
<path d="M87.0621 309.551H77.3887V319.224H87.0621V309.551Z" fill="black"/>
<path d="M106.408 309.551H96.7344V319.224H106.408V309.551Z" fill="black"/>
<path d="M116.082 309.551H106.408V319.224H116.082V309.551Z" fill="black"/>
<path d="M125.756 309.551H116.082V319.224H125.756V309.551Z" fill="black"/>
<path d="M135.429 309.551H125.756V319.224H135.429V309.551Z" fill="black"/>
<path d="M145.101 309.551H135.428V319.224H145.101V309.551Z" fill="black"/>
<path d="M154.775 309.551H145.102V319.224H154.775V309.551Z" fill="black"/>
<path d="M212.816 309.551H203.143V319.224H212.816V309.551Z" fill="black"/>
<path d="M222.49 309.551H212.816V319.224H222.49V309.551Z" fill="black"/>
<path d="M251.509 309.551H241.836V319.224H251.509V309.551Z" fill="black"/>
<path d="M290.205 309.551H280.531V319.224H290.205V309.551Z" fill="black"/>
<path d="M299.877 309.551H290.203V319.224H299.877V309.551Z" fill="black"/>
<path d="M309.55 309.551H299.877V319.224H309.55V309.551Z" fill="black"/>
<path d="M338.572 309.551H328.898V319.224H338.572V309.551Z" fill="black"/>
<path d="M357.918 309.551H348.244V319.224H357.918V309.551Z" fill="black"/>
<path d="M386.939 309.551H377.266V319.224H386.939V309.551Z" fill="black"/>
<path d="M396.613 309.551H386.939V319.224H396.613V309.551Z" fill="black"/>
<path d="M425.632 309.551H415.959V319.224H425.632V309.551Z" fill="black"/>
<path d="M48.3668 319.224H38.6934V328.898H48.3668V319.224Z" fill="black"/>
<path d="M58.0407 319.224H48.3672V328.898H58.0407V319.224Z" fill="black"/>
<path d="M87.0621 319.224H77.3887V328.898H87.0621V319.224Z" fill="black"/>
<path d="M96.734 319.224H87.0605V328.898H96.734V319.224Z" fill="black"/>
<path d="M116.082 319.224H106.408V328.898H116.082V319.224Z" fill="black"/>
<path d="M125.756 319.224H116.082V328.898H125.756V319.224Z" fill="black"/>
<path d="M135.429 319.224H125.756V328.898H135.429V319.224Z" fill="black"/>
<path d="M154.775 319.224H145.102V328.898H154.775V319.224Z" fill="black"/>
<path d="M164.449 319.224H154.775V328.898H164.449V319.224Z" fill="black"/>
<path d="M193.47 319.224H183.797V328.898H193.47V319.224Z" fill="black"/>
<path d="M251.509 319.224H241.836V328.898H251.509V319.224Z" fill="black"/>
<path d="M261.183 319.224H251.51V328.898H261.183V319.224Z" fill="black"/>
<path d="M270.857 319.224H261.184V328.898H270.857V319.224Z" fill="black"/>
<path d="M357.918 319.224H348.244V328.898H357.918V319.224Z" fill="black"/>
<path d="M367.591 319.224H357.918V328.898H367.591V319.224Z" fill="black"/>
<path d="M386.939 319.224H377.266V328.898H386.939V319.224Z" fill="black"/>
<path d="M396.613 319.224H386.939V328.898H396.613V319.224Z" fill="black"/>
<path d="M406.285 319.224H396.611V328.898H406.285V319.224Z" fill="black"/>
<path d="M425.632 319.224H415.959V328.898H425.632V319.224Z" fill="black"/>
<path d="M48.3668 328.898H38.6934V338.571H48.3668V328.898Z" fill="black"/>
<path d="M67.7145 328.898H58.041V338.571H67.7145V328.898Z" fill="black"/>
<path d="M87.0621 328.898H77.3887V338.571H87.0621V328.898Z" fill="black"/>
<path d="M106.408 328.898H96.7344V338.571H106.408V328.898Z" fill="black"/>
<path d="M125.756 328.898H116.082V338.571H125.756V328.898Z" fill="black"/>
<path d="M145.101 328.898H135.428V338.571H145.101V328.898Z" fill="black"/>
<path d="M154.775 328.898H145.102V338.571H154.775V328.898Z" fill="black"/>
<path d="M164.449 328.898H154.775V338.571H164.449V328.898Z" fill="black"/>
<path d="M174.123 328.898H164.449V338.571H174.123V328.898Z" fill="black"/>
<path d="M212.816 328.898H203.143V338.571H212.816V328.898Z" fill="black"/>
<path d="M222.49 328.898H212.816V338.571H222.49V328.898Z" fill="black"/>
<path d="M261.183 328.898H251.51V338.571H261.183V328.898Z" fill="black"/>
<path d="M270.857 328.898H261.184V338.571H270.857V328.898Z" fill="black"/>
<path d="M280.531 328.898H270.857V338.571H280.531V328.898Z" fill="black"/>
<path d="M290.205 328.898H280.531V338.571H290.205V328.898Z" fill="black"/>
<path d="M299.877 328.898H290.203V338.571H299.877V328.898Z" fill="black"/>
<path d="M309.55 328.898H299.877V338.571H309.55V328.898Z" fill="black"/>
<path d="M319.224 328.898H309.551V338.571H319.224V328.898Z" fill="black"/>
<path d="M328.898 328.898H319.225V338.571H328.898V328.898Z" fill="black"/>
<path d="M338.572 328.898H328.898V338.571H338.572V328.898Z" fill="black"/>
<path d="M348.246 328.898H338.572V338.571H348.246V328.898Z" fill="black"/>
<path d="M406.285 328.898H396.611V338.571H406.285V328.898Z" fill="black"/>
<path d="M415.959 328.898H406.285V338.571H415.959V328.898Z" fill="black"/>
<path d="M425.632 328.898H415.959V338.571H425.632V328.898Z" fill="black"/>
<path d="M48.3668 338.572H38.6934V348.245H48.3668V338.572Z" fill="black"/>
<path d="M87.0621 338.572H77.3887V348.245H87.0621V338.572Z" fill="black"/>
<path d="M96.734 338.572H87.0605V348.245H96.734V338.572Z" fill="black"/>
<path d="M116.082 338.572H106.408V348.245H116.082V338.572Z" fill="black"/>
<path d="M174.123 338.572H164.449V348.245H174.123V338.572Z" fill="black"/>
<path d="M251.509 338.572H241.836V348.245H251.509V338.572Z" fill="black"/>
<path d="M270.857 338.572H261.184V348.245H270.857V338.572Z" fill="black"/>
<path d="M319.224 338.572H309.551V348.245H319.224V338.572Z" fill="black"/>
<path d="M348.246 338.572H338.572V348.245H348.246V338.572Z" fill="black"/>
<path d="M357.918 338.572H348.244V348.245H357.918V338.572Z" fill="black"/>
<path d="M377.265 338.572H367.592V348.245H377.265V338.572Z" fill="black"/>
<path d="M386.939 338.572H377.266V348.245H386.939V338.572Z" fill="black"/>
<path d="M396.613 338.572H386.939V348.245H396.613V338.572Z" fill="black"/>
<path d="M406.285 338.572H396.611V348.245H406.285V338.572Z" fill="black"/>
<path d="M435.306 338.572H425.633V348.245H435.306V338.572Z" fill="black"/>
<path d="M48.3668 348.245H38.6934V357.918H48.3668V348.245Z" fill="black"/>
<path d="M67.7145 348.245H58.041V357.918H67.7145V348.245Z" fill="black"/>
<path d="M87.0621 348.245H77.3887V357.918H87.0621V348.245Z" fill="black"/>
<path d="M106.408 348.245H96.7344V357.918H106.408V348.245Z" fill="black"/>
<path d="M135.429 348.245H125.756V357.918H135.429V348.245Z" fill="black"/>
<path d="M145.101 348.245H135.428V357.918H145.101V348.245Z" fill="black"/>
<path d="M174.123 348.245H164.449V357.918H174.123V348.245Z" fill="black"/>
<path d="M183.797 348.245H174.123V357.918H183.797V348.245Z" fill="black"/>
<path d="M193.47 348.245H183.797V357.918H193.47V348.245Z" fill="black"/>
<path d="M212.816 348.245H203.143V357.918H212.816V348.245Z" fill="black"/>
<path d="M241.838 348.245H232.164V357.918H241.838V348.245Z" fill="black"/>
<path d="M280.531 348.245H270.857V357.918H280.531V348.245Z" fill="black"/>
<path d="M309.55 348.245H299.877V357.918H309.55V348.245Z" fill="black"/>
<path d="M319.224 348.245H309.551V357.918H319.224V348.245Z" fill="black"/>
<path d="M328.898 348.245H319.225V357.918H328.898V348.245Z" fill="black"/>
<path d="M357.918 348.245H348.244V357.918H357.918V348.245Z" fill="black"/>
<path d="M367.591 348.245H357.918V357.918H367.591V348.245Z" fill="black"/>
<path d="M377.265 348.245H367.592V357.918H377.265V348.245Z" fill="black"/>
<path d="M386.939 348.245H377.266V357.918H386.939V348.245Z" fill="black"/>
<path d="M396.613 348.245H386.939V357.918H396.613V348.245Z" fill="black"/>
<path d="M415.959 348.245H406.285V357.918H415.959V348.245Z" fill="black"/>
<path d="M425.632 348.245H415.959V357.918H425.632V348.245Z" fill="black"/>
<path d="M125.756 357.918H116.082V367.592H125.756V357.918Z" fill="black"/>
<path d="M135.429 357.918H125.756V367.592H135.429V357.918Z" fill="black"/>
<path d="M164.449 357.918H154.775V367.592H164.449V357.918Z" fill="black"/>
<path d="M193.47 357.918H183.797V367.592H193.47V357.918Z" fill="black"/>
<path d="M203.142 357.918H193.469V367.592H203.142V357.918Z" fill="black"/>
<path d="M222.49 357.918H212.816V367.592H222.49V357.918Z" fill="black"/>
<path d="M251.509 357.918H241.836V367.592H251.509V357.918Z" fill="black"/>
<path d="M270.857 357.918H261.184V367.592H270.857V357.918Z" fill="black"/>
<path d="M280.531 357.918H270.857V367.592H280.531V357.918Z" fill="black"/>
<path d="M299.877 357.918H290.203V367.592H299.877V357.918Z" fill="black"/>
<path d="M338.572 357.918H328.898V367.592H338.572V357.918Z" fill="black"/>
<path d="M357.918 357.918H348.244V367.592H357.918V357.918Z" fill="black"/>
<path d="M396.613 357.918H386.939V367.592H396.613V357.918Z" fill="black"/>
<path d="M435.306 357.918H425.633V367.592H435.306V357.918Z" fill="black"/>
<path d="M145.101 367.592H135.428V377.265H145.101V367.592Z" fill="black"/>
<path d="M174.123 367.592H164.449V377.265H174.123V367.592Z" fill="black"/>
<path d="M203.142 367.592H193.469V377.265H203.142V367.592Z" fill="black"/>
<path d="M222.49 367.592H212.816V377.265H222.49V367.592Z" fill="black"/>
<path d="M232.164 367.592H222.49V377.265H232.164V367.592Z" fill="black"/>
<path d="M241.838 367.592H232.164V377.265H241.838V367.592Z" fill="black"/>
<path d="M261.183 367.592H251.51V377.265H261.183V367.592Z" fill="black"/>
<path d="M280.531 367.592H270.857V377.265H280.531V367.592Z" fill="black"/>
<path d="M290.205 367.592H280.531V377.265H290.205V367.592Z" fill="black"/>
<path d="M299.877 367.592H290.203V377.265H299.877V367.592Z" fill="black"/>
<path d="M309.55 367.592H299.877V377.265H309.55V367.592Z" fill="black"/>
<path d="M328.898 367.592H319.225V377.265H328.898V367.592Z" fill="black"/>
<path d="M357.918 367.592H348.244V377.265H357.918V367.592Z" fill="black"/>
<path d="M377.265 367.592H367.592V377.265H377.265V367.592Z" fill="black"/>
<path d="M396.613 367.592H386.939V377.265H396.613V367.592Z" fill="black"/>
<path d="M406.285 367.592H396.611V377.265H406.285V367.592Z" fill="black"/>
<path d="M415.959 367.592H406.285V377.265H415.959V367.592Z" fill="black"/>
<path d="M425.632 367.592H415.959V377.265H425.632V367.592Z" fill="black"/>
<path d="M125.756 377.265H116.082V386.939H125.756V377.265Z" fill="black"/>
<path d="M135.429 377.265H125.756V386.939H135.429V377.265Z" fill="black"/>
<path d="M174.123 377.265H164.449V386.939H174.123V377.265Z" fill="black"/>
<path d="M203.142 377.265H193.469V386.939H203.142V377.265Z" fill="black"/>
<path d="M232.164 377.265H222.49V386.939H232.164V377.265Z" fill="black"/>
<path d="M270.857 377.265H261.184V386.939H270.857V377.265Z" fill="black"/>
<path d="M290.205 377.265H280.531V386.939H290.205V377.265Z" fill="black"/>
<path d="M319.224 377.265H309.551V386.939H319.224V377.265Z" fill="black"/>
<path d="M348.246 377.265H338.572V386.939H348.246V377.265Z" fill="black"/>
<path d="M357.918 377.265H348.244V386.939H357.918V377.265Z" fill="black"/>
<path d="M396.613 377.265H386.939V386.939H396.613V377.265Z" fill="black"/>
<path d="M435.306 377.265H425.633V386.939H435.306V377.265Z" fill="black"/>
<path d="M125.756 386.939H116.082V396.612H125.756V386.939Z" fill="black"/>
<path d="M174.123 386.939H164.449V396.612H174.123V386.939Z" fill="black"/>
<path d="M193.47 386.939H183.797V396.612H193.47V386.939Z" fill="black"/>
<path d="M203.142 386.939H193.469V396.612H203.142V386.939Z" fill="black"/>
<path d="M222.49 386.939H212.816V396.612H222.49V386.939Z" fill="black"/>
<path d="M251.509 386.939H241.836V396.612H251.509V386.939Z" fill="black"/>
<path d="M261.183 386.939H251.51V396.612H261.183V386.939Z" fill="black"/>
<path d="M280.531 386.939H270.857V396.612H280.531V386.939Z" fill="black"/>
<path d="M299.877 386.939H290.203V396.612H299.877V386.939Z" fill="black"/>
<path d="M309.55 386.939H299.877V396.612H309.55V386.939Z" fill="black"/>
<path d="M357.918 386.939H348.244V396.612H357.918V386.939Z" fill="black"/>
<path d="M367.591 386.939H357.918V396.612H367.591V386.939Z" fill="black"/>
<path d="M377.265 386.939H367.592V396.612H377.265V386.939Z" fill="black"/>
<path d="M386.939 386.939H377.266V396.612H386.939V386.939Z" fill="black"/>
<path d="M396.613 386.939H386.939V396.612H396.613V386.939Z" fill="black"/>
<path d="M415.959 386.939H406.285V396.612H415.959V386.939Z" fill="black"/>
<path d="M125.756 396.612H116.082V406.286H125.756V396.612Z" fill="black"/>
<path d="M135.429 396.612H125.756V406.286H135.429V396.612Z" fill="black"/>
<path d="M164.449 396.612H154.775V406.286H164.449V396.612Z" fill="black"/>
<path d="M183.797 396.612H174.123V406.286H183.797V396.612Z" fill="black"/>
<path d="M203.142 396.612H193.469V406.286H203.142V396.612Z" fill="black"/>
<path d="M241.838 396.612H232.164V406.286H241.838V396.612Z" fill="black"/>
<path d="M251.509 396.612H241.836V406.286H251.509V396.612Z" fill="black"/>
<path d="M261.183 396.612H251.51V406.286H261.183V396.612Z" fill="black"/>
<path d="M270.857 396.612H261.184V406.286H270.857V396.612Z" fill="black"/>
<path d="M299.877 396.612H290.203V406.286H299.877V396.612Z" fill="black"/>
<path d="M357.918 396.612H348.244V406.286H357.918V396.612Z" fill="black"/>
<path d="M367.591 396.612H357.918V406.286H367.591V396.612Z" fill="black"/>
<path d="M396.613 396.612H386.939V406.286H396.613V396.612Z" fill="black"/>
<path d="M125.756 406.286H116.082V415.959H125.756V406.286Z" fill="black"/>
<path d="M174.123 406.286H164.449V415.959H174.123V406.286Z" fill="black"/>
<path d="M193.47 406.286H183.797V415.959H193.47V406.286Z" fill="black"/>
<path d="M203.142 406.286H193.469V415.959H203.142V406.286Z" fill="black"/>
<path d="M222.49 406.286H212.816V415.959H222.49V406.286Z" fill="black"/>
<path d="M241.838 406.286H232.164V415.959H241.838V406.286Z" fill="black"/>
<path d="M261.183 406.286H251.51V415.959H261.183V406.286Z" fill="black"/>
<path d="M290.205 406.286H280.531V415.959H290.205V406.286Z" fill="black"/>
<path d="M299.877 406.286H290.203V415.959H299.877V406.286Z" fill="black"/>
<path d="M309.55 406.286H299.877V415.959H309.55V406.286Z" fill="black"/>
<path d="M319.224 406.286H309.551V415.959H319.224V406.286Z" fill="black"/>
<path d="M328.898 406.286H319.225V415.959H328.898V406.286Z" fill="black"/>
<path d="M348.246 406.286H338.572V415.959H348.246V406.286Z" fill="black"/>
<path d="M377.265 406.286H367.592V415.959H377.265V406.286Z" fill="black"/>
<path d="M386.939 406.286H377.266V415.959H386.939V406.286Z" fill="black"/>
<path d="M396.613 406.286H386.939V415.959H396.613V406.286Z" fill="black"/>
<path d="M415.959 406.286H406.285V415.959H415.959V406.286Z" fill="black"/>
<path d="M425.632 406.286H415.959V415.959H425.632V406.286Z" fill="black"/>
<path d="M135.429 415.959H125.756V425.633H135.429V415.959Z" fill="black"/>
<path d="M145.101 415.959H135.428V425.633H145.101V415.959Z" fill="black"/>
<path d="M154.775 415.959H145.102V425.633H154.775V415.959Z" fill="black"/>
<path d="M193.47 415.959H183.797V425.633H193.47V415.959Z" fill="black"/>
<path d="M212.816 415.959H203.143V425.633H212.816V415.959Z" fill="black"/>
<path d="M232.164 415.959H222.49V425.633H232.164V415.959Z" fill="black"/>
<path d="M261.183 415.959H251.51V425.633H261.183V415.959Z" fill="black"/>
<path d="M270.857 415.959H261.184V425.633H270.857V415.959Z" fill="black"/>
<path d="M280.531 415.959H270.857V425.633H280.531V415.959Z" fill="black"/>
<path d="M290.205 415.959H280.531V425.633H290.205V415.959Z" fill="black"/>
<path d="M299.877 415.959H290.203V425.633H299.877V415.959Z" fill="black"/>
<path d="M328.898 415.959H319.225V425.633H328.898V415.959Z" fill="black"/>
<path d="M338.572 415.959H328.898V425.633H338.572V415.959Z" fill="black"/>
<path d="M348.246 415.959H338.572V425.633H348.246V415.959Z" fill="black"/>
<path d="M357.918 415.959H348.244V425.633H357.918V415.959Z" fill="black"/>
<path d="M367.591 415.959H357.918V425.633H367.591V415.959Z" fill="black"/>
<path d="M386.939 415.959H377.266V425.633H386.939V415.959Z" fill="black"/>
<path d="M406.285 415.959H396.611V425.633H406.285V415.959Z" fill="black"/>
<path d="M415.959 415.959H406.285V425.633H415.959V415.959Z" fill="black"/>
<path d="M435.306 415.959H425.633V425.633H435.306V415.959Z" fill="black"/>
<path d="M125.756 425.633H116.082V435.306H125.756V425.633Z" fill="black"/>
<path d="M154.775 425.633H145.102V435.306H154.775V425.633Z" fill="black"/>
<path d="M174.123 425.633H164.449V435.306H174.123V425.633Z" fill="black"/>
<path d="M183.797 425.633H174.123V435.306H183.797V425.633Z" fill="black"/>
<path d="M203.142 425.633H193.469V435.306H203.142V425.633Z" fill="black"/>
<path d="M251.509 425.633H241.836V435.306H251.509V425.633Z" fill="black"/>
<path d="M309.55 425.633H299.877V435.306H309.55V425.633Z" fill="black"/>
<path d="M319.224 425.633H309.551V435.306H319.224V425.633Z" fill="black"/>
<path d="M328.898 425.633H319.225V435.306H328.898V425.633Z" fill="black"/>
<path d="M348.246 425.633H338.572V435.306H348.246V425.633Z" fill="black"/>
<path d="M357.918 425.633H348.244V435.306H357.918V425.633Z" fill="black"/>
<path d="M367.591 425.633H357.918V435.306H367.591V425.633Z" fill="black"/>
<path d="M377.265 425.633H367.592V435.306H377.265V425.633Z" fill="black"/>
<path d="M386.939 425.633H377.266V435.306H386.939V425.633Z" fill="black"/>
<path d="M396.613 425.633H386.939V435.306H396.613V425.633Z" fill="black"/>
<path d="M406.285 425.633H396.611V435.306H406.285V425.633Z" fill="black"/>
<path d="M415.959 425.633H406.285V435.306H415.959V425.633Z" fill="black"/>
<path fill-rule="evenodd" clip-rule="evenodd" d="M38.6934 56.6938C38.6934 46.7527 46.7522 38.6938 56.6934 38.6938H88.4077C98.3488 38.6938 106.408 46.7527 106.408 56.6938V88.4082C106.408 98.3493 98.3488 106.408 88.4077 106.408H56.6933C46.7522 106.408 38.6934 98.3493 38.6934 88.4081V56.6938ZM48.3668 64.3673C48.3668 55.5308 55.5303 48.3673 64.3668 48.3673H80.7342C89.5707 48.3673 96.7342 55.5308 96.7342 64.3673V80.7347C96.7342 89.5712 89.5707 96.7347 80.7342 96.7347H64.3668C55.5303 96.7347 48.3668 89.5712 48.3668 80.7347V64.3673Z" fill="black"/>
<path fill-rule="evenodd" clip-rule="evenodd" d="M367.592 62.6938C367.592 49.439 378.337 38.6938 391.592 38.6938H411.306C424.561 38.6938 435.306 49.439 435.306 62.6938V82.4082C435.306 95.663 424.561 106.408 411.306 106.408H391.592C378.337 106.408 367.592 95.663 367.592 82.4081V62.6938ZM377.265 64.3673C377.265 55.5308 384.429 48.3673 393.265 48.3673H409.633C418.469 48.3673 425.633 55.5308 425.633 64.3673V80.7347C425.633 89.5712 418.469 96.7347 409.633 96.7347H393.265C384.429 96.7347 377.265 89.5712 377.265 80.7347V64.3673Z" fill="black"/>
<path d="M80.0614 58.0408H65.041C61.175 58.0408 58.041 61.1748 58.041 65.0408V80.0612C58.041 83.9272 61.175 87.0612 65.041 87.0612H80.0614C83.9274 87.0612 87.0614 83.9272 87.0614 80.0612V65.0408C87.0614 61.1748 83.9274 58.0408 80.0614 58.0408Z" fill="black"/>
<path d="M408.96 58.0408H393.939C390.073 58.0408 386.939 61.1748 386.939 65.0408V80.0612C386.939 83.9272 390.073 87.0612 393.939 87.0612H408.96C412.826 87.0612 415.96 83.9272 415.96 80.0612V65.0408C415.96 61.1748 412.826 58.0408 408.96 58.0408Z" fill="black"/>
<path fill-rule="evenodd" clip-rule="evenodd" d="M38.6934 391.592C38.6934 378.337 49.4385 367.592 62.6934 367.592H82.4077C95.6625 367.592 106.408 378.337 106.408 391.592V411.306C106.408 424.561 95.6625 435.306 82.4077 435.306H62.6933C49.4385 435.306 38.6934 424.561 38.6934 411.306V391.592ZM48.3668 393.265C48.3668 384.429 55.5303 377.265 64.3668 377.265H80.7342C89.5707 377.265 96.7342 384.429 96.7342 393.265V409.633C96.7342 418.469 89.5707 425.633 80.7342 425.633H64.3668C55.5303 425.633 48.3668 418.469 48.3668 409.633V393.265Z" fill="black"/>
<path d="M80.0614 386.939H65.041C61.175 386.939 58.041 390.073 58.041 393.939V408.959C58.041 412.825 61.175 415.959 65.041 415.959H80.0614C83.9274 415.959 87.0614 412.825 87.0614 408.959V393.939C87.0614 390.073 83.9274 386.939 80.0614 386.939Z" fill="black"/>
</g>
</g>
<defs>
<clipPath id="clip0_262_1260">
<rect width="474" height="474" rx="22" fill="white"/>
</clipPath>
<clipPath id="clip1_262_1260">
<rect width="474" height="474" fill="white"/>
</clipPath>
</defs>
</svg>
