<svg width="268" height="38" viewBox="0 0 268 38" fill="none" xmlns="http://www.w3.org/2000/svg">
<g clip-path="url(#clip0_203_357)">
<path d="M188.328 33.4199C184.781 33.4199 182.012 32.1648 180.021 29.6549C178.029 27.1177 177.033 23.5029 177.033 18.8104C177.033 16.546 177.279 14.5135 177.77 12.7129C178.288 10.885 179.039 9.34361 180.021 8.08864C181.003 6.80638 182.217 5.83788 183.663 5.18312C185.136 4.50106 186.814 4.16003 188.696 4.16003C190.006 4.16003 191.179 4.35103 192.216 4.73295C193.252 5.08764 194.098 5.49685 194.753 5.96065V9.93015C194.016 9.46635 193.143 9.02984 192.134 8.62063C191.152 8.21138 190.088 8.00679 188.942 8.00679C186.514 8.00679 184.754 8.89344 183.663 10.6668C182.599 12.4128 182.067 15.1274 182.067 18.8104C182.067 22.3843 182.599 25.0716 183.663 26.8722C184.754 28.6728 186.432 29.5731 188.696 29.5731C190.006 29.5731 191.138 29.3821 192.093 29.0002C193.048 28.5909 193.934 28.0862 194.753 27.486V31.4555C194.125 31.8922 193.28 32.3285 192.216 32.7652C191.179 33.2015 189.883 33.4199 188.328 33.4199Z" fill="black"/>
<path d="M202.911 33.0107H198.041V4.56929H202.911V33.0107Z" fill="black"/>
<path d="M215.258 12.0175C216.595 12.0175 217.823 12.2494 218.941 12.7132C220.06 13.177 221.015 13.8727 221.806 14.8003C222.597 15.7006 223.211 16.8191 223.647 18.1559C224.111 19.4655 224.343 20.9796 224.343 22.6984C224.343 24.4171 224.111 25.9449 223.647 27.2817C223.211 28.6185 222.597 29.7507 221.806 30.6783C221.015 31.5787 220.06 32.2608 218.941 32.7246C217.823 33.1883 216.595 33.4203 215.258 33.4203C213.921 33.4203 212.694 33.1883 211.575 32.7246C210.457 32.2608 209.502 31.5787 208.71 30.6783C207.919 29.7507 207.292 28.6322 206.828 27.3226C206.392 25.9858 206.173 24.458 206.173 22.7393C206.173 21.0205 206.392 19.4928 206.828 18.1559C207.292 16.8191 207.919 15.7006 208.71 14.8003C209.502 13.8727 210.457 13.177 211.575 12.7132C212.694 12.2494 213.921 12.0175 215.258 12.0175ZM215.258 29.5734C216.622 29.5734 217.632 29.0278 218.286 27.9365C218.969 26.8452 219.31 25.0992 219.31 22.6984C219.31 20.2976 218.969 18.5652 218.286 17.5012C217.632 16.4099 216.622 15.8643 215.258 15.8643C213.894 15.8643 212.871 16.4099 212.189 17.5012C211.534 18.5924 211.207 20.3385 211.207 22.7393C211.207 25.1401 211.534 26.8861 212.189 27.9774C212.871 29.0414 213.894 29.5734 215.258 29.5734Z" fill="black"/>
<path d="M238.871 12.4268H243.741V33.0111H238.994L238.871 31.2922H238.625C238.134 31.7833 237.439 32.247 236.538 32.6837C235.665 33.12 234.492 33.3385 233.019 33.3385C231.027 33.3385 229.595 32.8748 228.722 31.947C227.849 30.9921 227.413 29.4916 227.413 27.4454V12.4268H232.282V26.9544C232.282 28.4822 233.114 29.2461 234.779 29.2461C235.652 29.2461 236.429 29.0414 237.111 28.6322C237.821 28.223 238.407 27.7456 238.871 27.1999V12.4268Z" fill="black"/>
<path d="M260.269 30.3506C258.932 32.3968 257.104 33.42 254.785 33.42C253.639 33.42 252.589 33.188 251.634 32.7242C250.679 32.2605 249.861 31.5784 249.179 30.678C248.497 29.7777 247.965 28.6728 247.583 27.3632C247.201 26.0537 247.01 24.5532 247.01 22.8618C247.01 21.143 247.201 19.6152 247.583 18.2784C247.992 16.9143 248.538 15.7821 249.22 14.8818C249.929 13.9542 250.775 13.2449 251.757 12.7538C252.739 12.2628 253.816 12.0172 254.99 12.0172C257.118 12.0172 258.836 12.9585 260.146 14.8409V4.56929H265.016V33.0107H260.514L260.269 30.3506ZM256.218 15.864C254.826 15.864 253.776 16.4232 253.066 17.5418C252.384 18.6331 252.043 20.4064 252.043 22.8618C252.043 25.208 252.371 26.9131 253.025 27.9771C253.68 29.0411 254.676 29.5731 256.013 29.5731C257.35 29.5731 258.359 29.0684 259.041 28.0589C259.723 27.0222 260.091 25.358 260.146 23.0664V22.0024C260.091 19.8744 259.737 18.3193 259.082 17.3372C258.427 16.355 257.472 15.864 256.218 15.864Z" fill="black"/>
<path d="M159.516 34.2281C155.742 36.8104 151.193 36.6763 142.061 36.7308L134.812 36.7185L138.479 26.8398L143.914 26.8295C148.334 26.8394 150.971 26.5041 153.117 24.9687C155.205 23.4735 156.476 21.1748 158.004 17.027L159.903 11.9352L170.44 11.9309L167.911 18.7037C164.705 27.2756 163.249 31.5879 159.516 34.2281Z" fill="#2A9FFF"/>
<path d="M138.429 3.60622C142.202 1.02376 146.751 1.15789 155.883 1.10352L163.133 1.11575L159.465 10.9944L154.031 11.0047C149.61 10.9948 146.973 11.3301 144.827 12.8655C142.74 14.3608 141.468 16.6594 139.941 20.8072L138.042 25.8991L127.504 25.9033L130.033 19.1305C133.239 10.5587 134.695 6.24643 138.429 3.60622Z" fill="#2A9FFF"/>
<path d="M120.414 12.4179H115.558L112.014 18.645L108.081 12.4179H102.599L108.826 22.2787L102.362 33.0031H107.307L111.447 26.0616L115.826 33.0031H121.338L114.604 22.3983L120.414 12.4179Z" fill="black"/>
<path d="M93.0071 12.001C87.0784 12.001 84.249 16.5587 84.249 22.7842C84.249 29.9337 87.7647 33.42 93.9903 33.42C97.1179 33.42 99.4112 32.6154 100.842 31.6326V27.6401C99.3227 28.6526 96.7901 29.5765 94.4064 29.5765C90.8315 29.5765 89.4914 27.8792 89.2817 24.452H101.05V21.8602C101.05 14.7108 97.8926 11.9994 93.0056 11.9994L93.0071 12.001ZM96.0759 20.8478H89.2833C89.4029 17.5712 90.5942 15.8428 92.9483 15.8428C95.3024 15.8428 96.0759 17.8383 96.0759 20.4301V20.8478Z" fill="black"/>
<path d="M76.2609 14.8308C75.0388 12.9845 73.2217 12.0015 71.1069 12.0015C66.3707 12.0015 63.0939 16.0529 63.0939 22.8453C63.0939 29.6376 66.3115 33.4202 70.8988 33.4202C73.1925 33.4202 75.07 32.3474 76.3805 30.3519L76.6182 33.0028H81.1167V4.55383H76.2609V14.8308ZM72.1209 29.577C69.4702 29.577 68.1594 27.7306 68.1594 22.8453C68.1594 17.9599 69.5291 15.8449 72.3305 15.8449C74.9519 15.8449 76.2625 17.9009 76.2625 22.6962C76.2625 27.4915 74.8619 29.577 72.1209 29.577Z" fill="black"/>
<path d="M54.2173 12.0902C51.2981 12.0902 49.6007 13.1322 48.616 14.1152H48.3474L48.2278 12.4179H43.4916V33.0028H48.3474V18.2272C49.2714 17.1247 50.7015 16.1712 52.4578 16.1712C54.2141 16.1712 54.9596 16.9166 54.9596 18.4648V33.0028H59.8154V17.9881C59.8154 13.8776 58.1772 12.0902 54.2141 12.0902H54.2173Z" fill="black"/>
<path d="M39.5031 18.9729C39.5031 13.9679 36.9705 12.092 31.8178 12.092C28.6299 12.0625 26.0381 13.4321 24.5489 14.5052V18.7057C26.1282 17.4541 28.4808 15.9649 31.2511 15.9649C33.5741 15.9649 34.6473 16.7988 34.6473 19.0039V20.3145H33.8726C26.3953 20.3145 23.0892 22.7277 23.0892 27.0168C23.0892 31.0093 25.6219 33.3027 29.4048 33.3027C32.2652 33.3027 33.4857 32.3495 34.4392 31.3664H34.6473C34.6769 31.9022 34.8554 32.5884 35.0046 33.0046H39.7704C39.5916 31.3369 39.5016 29.6381 39.5016 27.9703V18.9744L39.5031 18.9729ZM34.6473 28.0883C34.0215 29.0123 32.8894 29.7266 31.1627 29.7266C29.1066 29.7266 28.0941 28.5355 28.0941 26.7482C28.0941 24.3645 29.7619 23.5601 33.933 23.5601H34.6473V28.0883Z" fill="black"/>
<path d="M20.1383 4.55383L14.0618 18.3171H19.1258L25.1727 4.55383H20.1383Z" fill="black"/>
<path d="M6.73021 4.55383H1.57617L10.9307 24.8702V33.0028H15.8751V28.1763C15.8751 24.5426 15.4279 23.4695 14.0288 20.4305L6.73021 4.55383Z" fill="black"/>
</g>
<defs>
<clipPath id="clip0_203_357">
<rect width="267.362" height="37.8343" fill="white"/>
</clipPath>
</defs>
</svg>
